{"title":"Flatliners 1990 BluRay 720p x264 Dual [English-Hindi] - Hon3y","uid":14804436,"size":1369826228,"categoryP":"video","categoryS":"hd___movies","magnet":"?xt=urn:btih:1dcf024a11af712bbc7d2865186a3d67c899a5bc&amp;dn=Flatliners+1990+BluRay+720p+x264+Dual+%5BEnglish-Hindi%5D+-+Hon3y&amp;tr=udp%3A%2F%2Ftracker.leechers-paradise.org%3A6969&amp;tr=udp%3A%2F%2Fzer0day.ch%3A1337&amp;tr=udp%3A%2F%2Fopen.demonii.com%3A1337&amp;tr=udp%3A%2F%2Ftracker.coppersurfer.tk%3A6969&amp;tr=udp%3A%2F%2Fexodus.desync.com%3A6969","seeders":2,"leechers":0,"uploader":"CDRiPD","files":2,"time":1465158903,"description":"Flatliners 1990 BluRay 720p x264 Dual [English-Hindi] - Hon3y\r\n\r\n\r\nGeneral\r\nFormat : Matroska\r\nFormat version : Version 4 / Version 2\r\nFile size : 1.28 GiB\r\nDuration : 1h 54mn\r\nOverall bit rate : 1 599 Kbps\r\n\r\nVideo\r\nFormat : AVC\r\nFormat/Info : Advanced Video Codec\r\nFormat profile :   \r\nFormat settings, CABAC : Yes\r\nFormat settings, ReFrames : 8 frames\r\nCodec ID : V_MPEG4/ISO/AVC\r\nDuration : 1h 54mn\r\nBit rate : 1 404 Kbps\r\nWidth : 1 280 pixels\r\nHeight : 544 pixels\r\nDisplay aspect ratio : 2.35:1\r\nFrame rate mode : Constant\r\nFrame rate : 23.976 (24000/1001) fps\r\nColor space : YUV\r\nChroma subsampling : 4:2:0\r\nBit depth : 8 bits\r\nScan type : Progressive\r\nBits/(Pixel*Frame) : 0.084\r\nStream size : 1.12 GiB (88%)\r\n\r\nAudio 1\r\nFormat : AAC\r\nFormat/Info : Advanced Audio Codec\r\nFormat profile : LC\r\nCodec ID : A_AAC\r\nDuration : 1h 54mn\r\nBit rate : 96.0 Kbps\r\nChannel(s) : 2 channels\r\nChannel positions : Front: L R\r\nSampling rate : 48.0 KHz\r\nFrame rate : 46.875 fps (1024 spf)\r\nCompression mode : Lossy\r\nDelay relative to video : 9ms\r\nStream size : 78.4 MiB (6%)\r\nLanguage : Hindi\r\nDefault : Yes\r\n\r\n\r\nAudio 2\r\nFormat : AAC\r\nFormat/Info : Advanced Audio Codec\r\nFormat profile : LC\r\nCodec ID : A_AAC\r\nDuration : 1h 54mn\r\nBit rate : 96.0 Kbps\r\nChannel(s) : 2 channels\r\nChannel positions : Front: L R\r\nSampling rate : 48.0 KHz\r\nFrame rate : 46.875 fps (1024 spf)\r\nCompression mode : Lossy\r\nDelay relative to video : 9ms\r\nStream size : 78.4 MiB (6%)\r\nLanguage : English\r\n\r\n\r\nScreen Shot:\r\n\r\n \nhttps://ititli.com/Xvz \nhttps://ititli.com/XvI \nhttps://ititli.com/XvO \nhttps://ititli.com/XR9 \nhttps://ititli.com/XRX \nhttps://ititli.com/XRq \nhttps://ititli.com/XRr \nhttps://ititli.com/XR1 \nhttps://ititli.com/XRT \nhttps://ititli.com/XRW \nhttps://ititli.com/XRg \nhttps://ititli.com/XRn","torrent":{"xt":"urn:btih:1dcf024a11af712bbc7d2865186a3d67c899a5bc","amp;dn":"Flatliners+1990+BluRay+720p+x264+Dual+%5BEnglish-Hindi%5D+-+Hon3y","amp;tr":["udp%3A%2F%2Ftracker.leechers-paradise.org%3A6969","udp%3A%2F%2Fzer0day.ch%3A1337","udp%3A%2F%2Fopen.demonii.com%3A1337","udp%3A%2F%2Ftracker.coppersurfer.tk%3A6969","udp%3A%2F%2Fexodus.desync.com%3A6969"],"infoHash":"1dcf024a11af712bbc7d2865186a3d67c899a5bc","infoHashBuffer":{"type":"Buffer","data":[29,207,2,74,17,175,113,43,188,125,40,101,24,106,61,103,200,153,165,188]},"announce":[],"urlList":[]}}